<svg version="1.1" id="Layer_1" xmlns="http://www.w3.org/2000/svg" x="0px" y="0px"
	 viewBox="0 0 549.8 536.3" style="enable-background:new 0 0 549.8 536.3;" xml:space="preserve">
<g>
	<path d="M550.3,284.1c-0.2,1.1-0.4,2.3-0.5,3.4c-1,33.5-8.6,65.6-22,96.3c-24.3,55.6-62.8,98.7-115.1,129.5
		c-15.3,9-31.5,16.3-48.3,22c-3.4,1.2-6.9,1.4-10.3,0.6c-6-1.4-9.6-6-10-12.7c-0.1-1.1,0-2.1,0-3.2c0.1-24,0.3-48,0.4-72
		c0.1-10.2-1.1-20.2-4.5-29.9c-2.7-7.8-6.7-14.8-12.7-20.6c-0.3-0.3-0.5-0.7-0.9-1.2c3.5-0.5,6.6-0.9,9.8-1.3
		c17.3-2.5,34.3-6.5,50.3-13.9c31.1-14.2,50.2-38.3,59-71c3.2-11.8,4.9-23.8,5.5-36c0.4-7.8,0.6-15.6,0-23.4
		c-1.8-22.8-9.8-43-24.6-60.4c-2.5-2.9-2.9-5.1-1.7-8.7c3.6-10.8,4.5-22,3.7-33.4c-0.8-11.2-3.3-21.9-7.1-32.4
		c-0.7-1.9-1.7-2.7-3.6-2.8c-5.1-0.5-10.2,0.1-15.2,1.2c-13,2.7-25,8-36.5,14.5c-6.6,3.7-12.9,7.7-19.3,11.7
		c-1.4,0.9-2.6,1.2-4.2,0.8c-26.4-7.3-53.3-9.7-80.6-8.4c-17.7,0.9-35.3,3.6-52.4,8.3c-1.7,0.5-3,0.3-4.5-0.7
		c-11.5-7.7-23.4-14.5-36.2-19.9c-7.5-3.1-15.3-5.7-23.4-6.9c-4-0.6-8-1-12-0.5c-1.8,0.2-2.4,1.1-2.9,2.6
		c-3.9,10.5-6.5,21.4-7.2,32.6c-0.8,11.7,0.3,23.1,4,34.2c1,3,0.6,4.9-1.5,7.3c-13.8,16.2-21.9,34.9-24.5,56
		c-1.4,11.4-1,22.7-0.1,34.1c0.9,11.5,2.9,22.9,6.2,34c5.7,19.1,15.3,35.8,30.2,49.3c11.9,10.7,25.7,18.1,40.8,23.2
		c12.2,4.2,24.8,6.9,37.6,8.7c2.9,0.4,5.8,0.8,9,1.3c-0.3,0.5-0.5,0.9-0.7,1.1c-8.6,8.4-13,18.9-15.4,30.5c-0.1,0.6-0.4,1.2-0.4,1.8
		c0.1,2.7-1.4,3.8-3.7,4.7c-10,3.8-20.2,6.1-30.9,5.6c-14.4-0.7-26.5-6.4-36.2-16.9c-3.4-3.7-6.3-7.8-9-12
		c-4.8-7.4-10.4-14.2-17.4-19.6c-6.5-5.1-13.6-8.7-21.9-9.3c-3.5-0.3-7.1,0.3-10.7,0.5c-0.8,0.1-1.6,0.4-2.3,0.7
		c-3.4,1.4-4.3,3.7-2.3,6.8c1.2,1.8,2.8,3.5,4.5,5c1.9,1.6,3.9,3.1,6.1,4.3c4.1,2.3,7.6,5.4,10.6,9c8.2,9.8,14.8,20.6,19.6,32.5
		c6.1,15.2,17.3,24.7,32.7,29.6c10,3.3,20.3,4.1,30.8,3.9c8.9-0.1,17.7-1.1,26.4-2.7c0.5-0.1,1.1-0.1,1.8-0.2
		c0.1,0.8,0.2,1.4,0.2,2.1c0.1,16,0.2,32.1,0.3,48.1c0,1.5-0.1,3.1-0.5,4.5c-1.3,5.4-5.4,8.9-11.3,9.6c-3,0.3-5.9,0.1-8.7-0.9
		C115.8,511.4,56.4,457.9,25.3,390c-11-23.9-18.4-48.9-22.2-74.9c-2-13.3-3.1-26.7-3-40.1c0.3-54.4,14.8-104.7,44.6-150.3
		C75.1,78,116.2,43.7,167.4,21.5c20.8-9,42.5-15,64.8-18.6c18.8-3,37.8-4,56.8-3c56.5,3,107.5,21.3,152.5,55.7
		c49.5,37.8,82.5,86.9,99.2,146.9c4.4,15.7,7.2,31.8,8.5,48.1c0.3,3.7,0.3,7.3,0.6,11c0.1,1.1,0.3,2.1,0.5,3.2
		C550.3,271.2,550.3,277.7,550.3,284.1z"/>
</g>
</svg>
