<?xml version="1.0" encoding="utf-8"?>
<!-- Generator: Adobe Illustrator 26.0.2, SVG Export Plug-In . SVG Version: 6.00 Build 0)  -->
<svg version="1.1" id="Layer_1" xmlns="http://www.w3.org/2000/svg" xmlns:xlink="http://www.w3.org/1999/xlink" x="0px" y="0px"
	 viewBox="0 0 458.5 458.5" style="enable-background:new 0 0 458.5 458.5;" xml:space="preserve">
<g>
	<path d="M0,229.3C-0.1,102.7,102.4,0.1,229.1,0c126.7-0.1,229.3,102.5,229.3,229.1c0,126.6-102.6,229.4-229.1,229.4
		C102.6,458.5,0.1,356.1,0,229.3z M251.4,337.1c0-2,0-3.8,0-5.6c0-27.5,0.1-55,0-82.5c0-8.2,2.4-15.4,7.9-21.5
		c7.3-7.9,16.3-10.5,26.8-8.3c10,2.1,15.5,8.9,17.8,18.2c1.5,6.1,2.1,12.5,2.1,18.8c0.2,25,0.1,50,0.1,75c0,1.9,0,3.9,0,5.8
		c17.6,0,34.5,0,51.5,0c0.1-1.3,0.3-2.3,0.3-3.3c0-29.2,0.3-58.3-0.2-87.5c-0.2-9.7-1.6-19.7-4.3-29c-6.2-21.3-20.6-34.8-42.7-38.6
		c-22.9-3.9-42.7,1.4-56.8,21.3c-0.5,0.7-0.6,1.8-0.8,2.7c-0.6-0.4-1.2-0.9-1.8-1.3c0-6.6,0-13.2,0-19.8c-17.4,0-34.3,0-51.4,0
		c0,52,0,103.8,0,155.6C217,337.1,234,337.1,251.4,337.1z M170.3,337.1c0-52,0-103.7,0-155.5c-17.3,0-34.2,0-51.2,0
		c0,52,0,103.6,0,155.5C136.3,337.1,153.2,337.1,170.3,337.1z M144,159.8c14.7,0.3,26.2-7.5,29.3-19.9c3.6-14.5-4.1-28.4-18.2-32.6
		c-16.3-4.9-32.8,2.4-37.7,16.4c-0.4,1.2-0.8,2.5-1,3.8C113.3,145.5,125.2,159.4,144,159.8z"/>
</g>
</svg>
